<svg xmlns="http://www.w3.org/2000/svg" xmlns:xlink="http://www.w3.org/1999/xlink" width="128" zoomAndPan="magnify" viewBox="0 0 96 95.999999" height="128" preserveAspectRatio="xMidYMid meet" version="1.2"><defs/><g id="cb54af05bb"><g style="fill:#40c0e7;fill-opacity:1;"><g transform="translate(9.6, 88.124997)"><path style="stroke:none" d="M 10.390625 0 L 10.390625 -79.9375 L 44.515625 -79.9375 C 49.429688 -79.9375 53.59375 -79.160156 57 -77.609375 C 60.40625 -76.066406 62.984375 -73.863281 64.734375 -71 C 66.484375 -68.132812 67.359375 -64.753906 67.359375 -60.859375 C 67.359375 -57.328125 66.5 -54.210938 64.78125 -51.515625 C 63.070312 -48.816406 60.613281 -46.644531 57.40625 -45 L 57.40625 -43.859375 C 62.4375 -42.546875 66.316406 -40.15625 69.046875 -36.6875 C 71.785156 -33.226562 73.15625 -28.984375 73.15625 -23.953125 C 73.15625 -16.296875 70.847656 -10.390625 66.234375 -6.234375 C 61.628906 -2.078125 54.789062 0 45.71875 0 Z M 41.234375 -48.0625 C 48.597656 -48.0625 52.28125 -51.378906 52.28125 -58.015625 C 52.28125 -61.398438 51.367188 -63.921875 49.546875 -65.578125 C 47.722656 -67.242188 44.953125 -68.078125 41.234375 -68.078125 L 26.1875 -68.078125 L 26.1875 -48.0625 Z M 44.125 -12.515625 C 52.832031 -12.515625 57.1875 -16.472656 57.1875 -24.390625 C 57.1875 -32.335938 52.832031 -36.3125 44.125 -36.3125 L 26.1875 -36.3125 L 26.1875 -12.515625 Z M 44.125 -12.515625 "/></g></g></g></svg>